<?xml version="1.0" encoding="UTF-8"?>
<!DOCTYPE svg PUBLIC "-//W3C//DTD SVG 1.1//EN" "http://www.w3.org/Graphics/SVG/1.1/DTD/svg11.dtd">
<svg xmlns="http://www.w3.org/2000/svg" version="1.1" width="220px" height="70px" style="shape-rendering:geometricPrecision; text-rendering:geometricPrecision; image-rendering:optimizeQuality; fill-rule:evenodd; clip-rule:evenodd" xmlns:xlink="http://www.w3.org/1999/xlink">
<g><path style="opacity:1" fill="#f8f9f9" d="M -0.5,-0.5 C 72.8333,-0.5 146.167,-0.5 219.5,-0.5C 219.5,22.8333 219.5,46.1667 219.5,69.5C 218.833,69.5 218.167,69.5 217.5,69.5C 219.057,66.8373 218.39,64.8373 215.5,63.5C 216.397,63.3309 217.397,62.9976 218.5,62.5C 218,61.1195 217,60.4528 215.5,60.5C 213.734,60.4342 212.734,61.2676 212.5,63C 213.292,64.9597 214.625,66.4597 216.5,67.5C 216.062,68.5063 215.396,68.5063 214.5,67.5C 213.702,67.9569 213.369,68.6236 213.5,69.5C 212.167,69.5 210.833,69.5 209.5,69.5C 211.315,67.5315 211.815,65.1982 211,62.5C 206.93,59.3145 204.43,60.3145 203.5,65.5C 203.752,67.0729 204.418,68.4062 205.5,69.5C 203.833,69.5 202.167,69.5 200.5,69.5C 201.156,67.516 201.822,65.516 202.5,63.5C 202.167,62.8333 201.833,62.1667 201.5,61.5C 200.757,62.9079 199.923,64.2412 199,65.5C 198.691,64.2341 198.191,63.0674 197.5,62C 196.668,61.3123 196.002,61.479 195.5,62.5C 196.312,64.9446 197.312,67.2779 198.5,69.5C 195.833,69.5 193.167,69.5 190.5,69.5C 190.274,66.7508 190.607,64.0841 191.5,61.5C 189.833,60.1667 188.167,60.1667 186.5,61.5C 188.229,63.8511 188.896,66.5178 188.5,69.5C 187.5,69.5 186.5,69.5 185.5,69.5C 183.439,59.0181 181.105,59.0181 178.5,69.5C 178.167,69.5 177.833,69.5 177.5,69.5C 177.167,68.1667 176.833,66.8333 176.5,65.5C 177.833,64.1667 177.833,62.8333 176.5,61.5C 175.081,60.5489 173.415,60.2155 171.5,60.5C 171.737,61.791 171.404,62.791 170.5,63.5C 167.942,59.5622 165.442,59.5622 163,63.5C 162.617,62.944 162.117,62.6107 161.5,62.5C 159.295,59.9469 156.962,59.9469 154.5,62.5C 153.121,60.4031 151.455,60.0698 149.5,61.5C 149.5,64.1667 149.5,66.8333 149.5,69.5C 148.5,69.5 147.5,69.5 146.5,69.5C 149.316,65.1129 148.149,62.1129 143,60.5C 139.141,62.9375 138.641,65.9375 141.5,69.5C 140.167,69.5 138.833,69.5 137.5,69.5C 138.303,68.5768 138.47,67.5768 138,66.5C 136.644,67.3802 135.144,67.7135 133.5,67.5C 133.5,66.1667 133.5,64.8333 133.5,63.5C 135.446,63.8072 137.113,63.8072 138.5,63.5C 136.788,60.2087 134.455,59.7087 131.5,62C 130.083,64.7435 130.416,67.2435 132.5,69.5C 130.5,69.5 128.5,69.5 126.5,69.5C 128.197,66.2853 127.197,64.2853 123.5,63.5C 124.603,63.0024 125.603,62.6691 126.5,62.5C 124.541,59.7642 122.875,59.9309 121.5,63C 122.292,64.9597 123.625,66.4597 125.5,67.5C 124.726,68.7112 123.893,68.7112 123,67.5C 122.536,68.0944 122.369,68.7611 122.5,69.5C 121.5,69.5 120.5,69.5 119.5,69.5C 120.537,67.2625 120.703,64.9291 120,62.5C 114.481,59.3341 112.148,61.0008 113,67.5C 113.717,68.0442 114.217,68.7109 114.5,69.5C 113.5,69.5 112.5,69.5 111.5,69.5C 110.833,58.8333 110.167,58.8333 109.5,69.5C 108.5,69.5 107.5,69.5 106.5,69.5C 107.091,68.8485 107.757,68.1818 108.5,67.5C 108.167,67.1667 107.833,66.8333 107.5,66.5C 105.929,67.3094 104.262,67.6427 102.5,67.5C 102.5,66.1667 102.5,64.8333 102.5,63.5C 104.674,63.9202 106.674,63.9202 108.5,63.5C 107.259,60.856 105.259,60.0226 102.5,61C 99.8987,63.8295 99.8987,66.6629 102.5,69.5C 101.5,69.5 100.5,69.5 99.5,69.5C 98.8333,58.8333 98.1667,58.8333 97.5,69.5C 96.5,69.5 95.5,69.5 94.5,69.5C 95.5448,66.8862 96.0448,64.2196 96,61.5C 95.0766,62.7588 94.2432,64.0921 93.5,65.5C 92.316,63.9539 91.316,62.2873 90.5,60.5C 88.2727,61.0525 85.9393,61.0525 83.5,60.5C 83.5,63.5 83.5,66.5 83.5,69.5C 82.8333,69.5 82.1667,69.5 81.5,69.5C 78.9292,68.2379 78.9292,66.9045 81.5,65.5C 78.8333,64.1667 78.8333,62.8333 81.5,61.5C 79.9547,60.5481 78.288,60.2148 76.5,60.5C 77.0252,65.118 75.6919,66.118 72.5,63.5C 72.9377,62.4937 73.6043,62.4937 74.5,63.5C 75.521,62.9984 75.6877,62.3317 75,61.5C 73.6439,60.6198 72.1439,60.2865 70.5,60.5C 70.2623,63.4082 71.2623,65.7415 73.5,67.5C 72.7376,67.9106 71.7376,68.0773 70.5,68C 71.056,68.3826 71.3893,68.8826 71.5,69.5C 47.5,69.5 23.5,69.5 -0.5,69.5C -0.5,46.1667 -0.5,22.8333 -0.5,-0.5 Z"/></g>
<g><path style="opacity:1" fill="#1b2f40" d="M 53.5,13.5 C 51.095,13.8664 48.7617,14.5331 46.5,15.5C 45.1508,15.1543 43.8175,14.821 42.5,14.5C 42.1583,13.6618 41.4916,13.3284 40.5,13.5C 35.8981,10.5242 31.2314,7.52424 26.5,4.5C 25.7025,4.04311 25.3691,3.37644 25.5,2.5C 27.9262,0.781543 30.5929,0.281543 33.5,1C 40.3396,5.02978 47.0062,9.19645 53.5,13.5 Z"/></g>
<g><path style="opacity:1" fill="#1f7c90" d="M 40.5,13.5 C 41.4916,13.3284 42.1583,13.6618 42.5,14.5C 44.3154,15.7908 45.3154,17.6241 45.5,20C 45.4857,21.3847 45.1524,22.5514 44.5,23.5C 38.0087,20.4215 31.6754,17.0882 25.5,13.5C 24.4448,10.9272 24.2782,8.26051 25,5.5C 29.8281,8.83067 34.9948,11.4973 40.5,13.5 Z"/></g>
<g><path style="opacity:1" fill="#1e3243" d="M 20.5,5.5 C 21.5,5.5 22.5,5.5 23.5,5.5C 24.3419,9.62091 23.0085,12.6209 19.5,14.5C 13.0087,17.5785 6.67537,20.9118 0.5,24.5C 0.0196449,21.3148 0.686312,18.4815 2.5,16C 9.01994,13.2453 15.0199,9.74531 20.5,5.5 Z"/></g>
<g><path style="opacity:1" fill="#7fa6b0" d="M 25.5,2.5 C 25.3691,3.37644 25.7025,4.04311 26.5,4.5C 31.2314,7.52424 35.8981,10.5242 40.5,13.5C 34.9948,11.4973 29.8281,8.83067 25,5.5C 24.2782,8.26051 24.4448,10.9272 25.5,13.5C 23.5,13.8333 21.5,14.1667 19.5,14.5C 23.0085,12.6209 24.3419,9.62091 23.5,5.5C 22.5,5.5 21.5,5.5 20.5,5.5C 22.2944,4.76712 23.9611,3.76712 25.5,2.5 Z"/></g>
<g><path style="opacity:1" fill="#566673" d="M 126.5,10.5 C 122.601,9.20916 118.601,9.20916 114.5,10.5C 116.223,9.19989 118.39,8.53323 121,8.5C 123.167,8.83333 125.333,9.16667 127.5,9.5C 127.376,10.1067 127.043,10.44 126.5,10.5 Z"/></g>
<g><path style="opacity:1" fill="#9ea6ad" d="M 100.5,8.5 C 96.9581,8.18723 93.6248,8.52056 90.5,9.5C 90.5,23.5 90.5,37.5 90.5,51.5C 90.5,51.8333 90.5,52.1667 90.5,52.5C 89.5039,37.676 89.1706,22.676 89.5,7.5C 93.3714,7.18503 97.0381,7.51836 100.5,8.5 Z"/></g>
<g><path style="opacity:1" fill="#152a3c" d="M 90.5,9.5 C 93.5,9.5 96.5,9.5 99.5,9.5C 99.5,15.5 99.5,21.5 99.5,27.5C 100.791,27.7373 101.791,27.404 102.5,26.5C 102.5,26.1667 102.5,25.8333 102.5,25.5C 106.271,20.2782 110.271,15.2782 114.5,10.5C 118.601,9.20916 122.601,9.20916 126.5,10.5C 123.785,13.2139 121.451,16.2139 119.5,19.5C 117.413,20.5846 116.08,22.2512 115.5,24.5C 113.5,25.976 111.833,27.8094 110.5,30C 116.357,37.0229 122.024,44.1895 127.5,51.5C 123.541,52.6599 119.541,52.8265 115.5,52C 111.303,46.3133 106.97,40.8133 102.5,35.5C 102.5,35.1667 102.5,34.8333 102.5,34.5C 102.179,32.9519 101.179,32.2852 99.5,32.5C 99.5,38.8333 99.5,45.1667 99.5,51.5C 96.5,51.5 93.5,51.5 90.5,51.5C 90.5,37.5 90.5,23.5 90.5,9.5 Z"/></g>
<g><path style="opacity:1" fill="#374958" d="M 90.5,9.5 C 93.6248,8.52056 96.9581,8.18723 100.5,8.5C 99.88,14.9262 100.547,20.9262 102.5,26.5C 101.791,27.404 100.791,27.7373 99.5,27.5C 99.5,21.5 99.5,15.5 99.5,9.5C 96.5,9.5 93.5,9.5 90.5,9.5 Z"/></g>
<g><path style="opacity:1" fill="#b4bbc0" d="M 100.5,8.5 C 101.167,14.1667 101.833,19.8333 102.5,25.5C 102.5,25.8333 102.5,26.1667 102.5,26.5C 100.547,20.9262 99.88,14.9262 100.5,8.5 Z"/></g>
<g><path style="opacity:1" fill="#152a3c" d="M 157.5,8.5 C 167.422,10.8936 170.256,16.8936 166,26.5C 164.693,27.7717 163.193,28.7717 161.5,29.5C 164.122,30.4588 166.122,32.1255 167.5,34.5C 168.833,38.5 168.833,42.5 167.5,46.5C 165.426,49.0495 162.759,50.8829 159.5,52C 151.173,52.4997 142.84,52.6664 134.5,52.5C 134.5,37.8333 134.5,23.1667 134.5,8.5C 142.167,8.5 149.833,8.5 157.5,8.5 Z"/></g>
<g><path style="opacity:1" fill="#172b3d" d="M 211.5,47.5 C 209.847,47.6596 208.514,48.3263 207.5,49.5C 207.158,50.3382 206.492,50.6716 205.5,50.5C 199.833,51.8333 194.167,51.8333 188.5,50.5C 179.823,46.9981 175.489,40.4981 175.5,31C 176.993,14.5107 185.993,7.17739 202.5,9C 217.434,14.7077 222.268,25.2077 217,40.5C 214.675,42.5008 212.842,44.8342 211.5,47.5 Z"/></g>
<g><path style="opacity:1" fill="#bdc3c8" d="M 157.5,8.5 C 149.833,8.5 142.167,8.5 134.5,8.5C 134.5,23.1667 134.5,37.8333 134.5,52.5C 133.504,37.676 133.171,22.676 133.5,7.5C 141.684,7.17428 149.684,7.50761 157.5,8.5 Z"/></g>
<g><path style="opacity:1" fill="#1c7c90" d="M 25.5,13.5 C 26.5736,14.8846 27.9069,16.0513 29.5,17C 24.9339,20.1111 20.2673,22.9444 15.5,25.5C 13.3635,26.4026 11.3635,27.5693 9.5,29C 11.1626,29.2649 12.6626,28.7649 14,27.5C 14.7751,36.2145 14.6085,44.8812 13.5,53.5C 13.1583,54.3382 12.4916,54.6716 11.5,54.5C 10.5,54.5 9.5,54.5 8.5,54.5C 8.6664,46.16 8.49973,37.8267 8,29.5C 6.00651,28.086 3.83984,27.086 1.5,26.5C 1.5,26.1667 1.5,25.8333 1.5,25.5C 6.15275,23.191 10.8194,20.8577 15.5,18.5C 16.9093,17.1515 18.2426,15.8181 19.5,14.5C 21.5,14.1667 23.5,13.8333 25.5,13.5 Z"/></g>
<g><path style="opacity:1" fill="#112739" d="M 59.5,40.5 C 57.847,40.3404 56.5137,39.6737 55.5,38.5C 55.3337,31.4921 55.5004,24.4921 56,17.5C 57.1131,16.2889 58.2798,16.2889 59.5,17.5C 60.8199,25.3235 60.8199,32.9902 59.5,40.5 Z"/></g>
<g><path style="opacity:1" fill="#f9fbfc" d="M 25.5,13.5 C 31.6754,17.0882 38.0087,20.4215 44.5,23.5C 46.3993,29.8824 47.0659,36.5491 46.5,43.5C 42.4645,45.8483 38.4645,48.1816 34.5,50.5C 33.1667,50.8333 31.8333,51.1667 30.5,51.5C 25.8501,49.1961 21.1835,46.8627 16.5,44.5C 15.5422,38.2564 15.2088,31.923 15.5,25.5C 20.2673,22.9444 24.9339,20.1111 29.5,17C 27.9069,16.0513 26.5736,14.8846 25.5,13.5 Z"/></g>
<g><path style="opacity:1" fill="#86b0ba" d="M 53.5,13.5 C 53.8333,13.5 54.1667,13.5 54.5,13.5C 54.1739,22.0168 54.5073,30.3501 55.5,38.5C 56.5137,39.6737 57.847,40.3404 59.5,40.5C 59.56,41.0431 59.8933,41.3764 60.5,41.5C 61.4977,33.5277 61.831,25.5277 61.5,17.5C 62.3554,27.6373 62.6887,37.8039 62.5,48C 62.4313,49.9855 61.7647,51.4855 60.5,52.5C 61.7294,49.8654 61.7294,47.1987 60.5,44.5C 59.5832,45.1272 58.5832,45.4606 57.5,45.5C 58.0577,44.2101 59.0577,43.3768 60.5,43C 57.7536,41.2503 54.7536,40.2503 51.5,40C 52.7977,35.9228 53.4644,31.5894 53.5,27C 53.1667,22.8333 52.8333,18.6667 52.5,14.5C 50.7419,15.1279 49.2419,16.1279 48,17.5C 47.8333,21.5 47.6667,25.5 47.5,29.5C 47.5374,33.9246 48.2041,38.0913 49.5,42C 48.4734,42.5133 47.4734,43.0133 46.5,43.5C 47.0659,36.5491 46.3993,29.8824 44.5,23.5C 45.1524,22.5514 45.4857,21.3847 45.5,20C 45.3154,17.6241 44.3154,15.7908 42.5,14.5C 43.8175,14.821 45.1508,15.1543 46.5,15.5C 48.7617,14.5331 51.095,13.8664 53.5,13.5 Z"/></g>
<g><path style="opacity:1" fill="#3f515f" d="M 54.5,13.5 C 57.0316,14.5957 59.3649,15.9291 61.5,17.5C 61.831,25.5277 61.4977,33.5277 60.5,41.5C 59.8933,41.3764 59.56,41.0431 59.5,40.5C 60.8199,32.9902 60.8199,25.3235 59.5,17.5C 58.2798,16.2889 57.1131,16.2889 56,17.5C 55.5004,24.4921 55.3337,31.4921 55.5,38.5C 54.5073,30.3501 54.1739,22.0168 54.5,13.5 Z"/></g>
<g><path style="opacity:1" fill="#8f99a1" d="M 154.5,17.5 C 151.5,17.5 148.5,17.5 145.5,17.5C 145.5,20.5 145.5,23.5 145.5,26.5C 144.521,23.3752 144.187,20.0419 144.5,16.5C 148.042,16.1872 151.375,16.5206 154.5,17.5 Z"/></g>
<g><path style="opacity:1" fill="#f6f7f8" d="M 154.5,17.5 C 157.145,20.2171 157.145,23.0505 154.5,26C 151.518,26.498 148.518,26.6646 145.5,26.5C 145.5,23.5 145.5,20.5 145.5,17.5C 148.5,17.5 151.5,17.5 154.5,17.5 Z"/></g>
<g><path style="opacity:1" fill="#99a3ab" d="M 200.5,18.5 C 197.482,18.7038 194.482,19.0371 191.5,19.5C 192.946,18.0598 194.779,17.3932 197,17.5C 198.385,17.5143 199.551,17.8476 200.5,18.5 Z"/></g>
<g><path style="opacity:1" fill="#f9fafa" d="M 200.5,18.5 C 203.075,19.5678 205.242,21.2345 207,23.5C 207.826,28.5893 207.492,33.5893 206,38.5C 201.413,42.6373 196.247,43.4706 190.5,41C 189.117,39.7292 188.117,38.2292 187.5,36.5C 186.019,31.69 186.352,27.0234 188.5,22.5C 189.167,21.1667 190.167,20.1667 191.5,19.5C 194.482,19.0371 197.482,18.7038 200.5,18.5 Z"/></g>
<g><path style="opacity:1" fill="#729faa" d="M 19.5,14.5 C 18.2426,15.8181 16.9093,17.1515 15.5,18.5C 10.8194,20.8577 6.15275,23.191 1.5,25.5C 0.833333,25.5 0.5,25.1667 0.5,24.5C 6.67537,20.9118 13.0087,17.5785 19.5,14.5 Z"/></g>
<g><path style="opacity:1" fill="#9ca5ad" d="M 119.5,19.5 C 118.92,21.7488 117.587,23.4154 115.5,24.5C 116.08,22.2512 117.413,20.5846 119.5,19.5 Z"/></g>
<g><path style="opacity:1" fill="#1a2f40" d="M 0.5,27.5 C 2.83984,28.086 5.00651,29.086 7,30.5C 7.16667,34.5 7.33333,38.5 7.5,42.5C 7.4907,46.893 6.82404,50.893 5.5,54.5C 4.19322,53.8466 2.85989,53.1799 1.5,52.5C 0.502124,44.1932 0.168791,35.8599 0.5,27.5 Z"/></g>
<g><path style="opacity:1" fill="#7f8b95" d="M 188.5,22.5 C 186.352,27.0234 186.019,31.69 187.5,36.5C 186.883,36.3893 186.383,36.056 186,35.5C 185.271,31.6227 185.438,27.7894 186.5,24C 186.836,22.9701 187.503,22.4701 188.5,22.5 Z"/></g>
<g><path style="opacity:1" fill="#2a3d4d" d="M 70.5,8.5 C 73.8333,8.5 77.1667,8.5 80.5,8.5C 80.5,23.1667 80.5,37.8333 80.5,52.5C 77.1667,52.5 73.8333,52.5 70.5,52.5C 70.5,37.8333 70.5,23.1667 70.5,8.5 Z"/></g>
<g><path style="opacity:1" fill="#102638" d="M 71.5,9.5 C 74.1667,9.5 76.8333,9.5 79.5,9.5C 79.5,23.5 79.5,37.5 79.5,51.5C 76.8333,51.5 74.1667,51.5 71.5,51.5C 71.5,37.5 71.5,23.5 71.5,9.5 Z"/></g>
<g><path style="opacity:1" fill="#7f9ea8" d="M 0.5,27.5 C 0.5,26.8333 0.833333,26.5 1.5,26.5C 3.83984,27.086 6.00651,28.086 8,29.5C 8.49973,37.8267 8.6664,46.16 8.5,54.5C 9.5,54.5 10.5,54.5 11.5,54.5C 10.8333,55.1667 10.1667,55.8333 9.5,56.5C 8.00478,56.0113 6.67145,55.3446 5.5,54.5C 6.82404,50.893 7.4907,46.893 7.5,42.5C 7.33333,38.5 7.16667,34.5 7,30.5C 5.00651,29.086 2.83984,28.086 0.5,27.5 Z"/></g>
<g><path style="opacity:1" fill="#374a58" d="M 102.5,34.5 C 101.883,34.3893 101.383,34.056 101,33.5C 100.5,39.8246 100.334,46.1579 100.5,52.5C 97.1667,52.5 93.8333,52.5 90.5,52.5C 90.5,52.1667 90.5,51.8333 90.5,51.5C 93.5,51.5 96.5,51.5 99.5,51.5C 99.5,45.1667 99.5,38.8333 99.5,32.5C 101.179,32.2852 102.179,32.9519 102.5,34.5 Z"/></g>
<g><path style="opacity:1" fill="#949ea6" d="M 154.5,34.5 C 151.5,34.5 148.5,34.5 145.5,34.5C 145.5,37.5 145.5,40.5 145.5,43.5C 144.521,40.3752 144.187,37.0419 144.5,33.5C 148.042,33.1872 151.375,33.5206 154.5,34.5 Z"/></g>
<g><path style="opacity:1" fill="#fafbfb" d="M 154.5,34.5 C 156.027,34.427 157.027,35.0937 157.5,36.5C 157.834,39.188 157.168,41.5214 155.5,43.5C 152.167,43.5 148.833,43.5 145.5,43.5C 145.5,40.5 145.5,37.5 145.5,34.5C 148.5,34.5 151.5,34.5 154.5,34.5 Z"/></g>
<g><path style="opacity:1" fill="#b4bcc2" d="M 102.5,34.5 C 102.5,34.8333 102.5,35.1667 102.5,35.5C 101.833,41.1667 101.167,46.8333 100.5,52.5C 100.334,46.1579 100.5,39.8246 101,33.5C 101.383,34.056 101.883,34.3893 102.5,34.5 Z"/></g>
<g><path style="opacity:1" fill="#6ea7b4" d="M 15.5,25.5 C 15.2088,31.923 15.5422,38.2564 16.5,44.5C 16.3367,46.8568 16.5034,49.1902 17,51.5C 19.9877,53.3991 22.8211,55.3991 25.5,57.5C 21.6828,55.59 17.6828,54.2567 13.5,53.5C 14.6085,44.8812 14.7751,36.2145 14,27.5C 12.6626,28.7649 11.1626,29.2649 9.5,29C 11.3635,27.5693 13.3635,26.4026 15.5,25.5 Z"/></g>
<g><path style="opacity:1" fill="#a1a9b1" d="M 167.5,34.5 C 168.117,34.6107 168.617,34.944 169,35.5C 169.167,37.3333 169.333,39.1667 169.5,41C 169.453,43.2953 168.787,45.1286 167.5,46.5C 168.833,42.5 168.833,38.5 167.5,34.5 Z"/></g>
<g><path style="opacity:1" fill="#2a7e91" d="M 57.5,45.5 C 52.6322,50.1039 46.9655,53.4372 40.5,55.5C 38.4068,54.9553 36.4068,54.122 34.5,53C 33.4019,52.2303 33.4019,51.397 34.5,50.5C 38.4645,48.1816 42.4645,45.8483 46.5,43.5C 47.4734,43.0133 48.4734,42.5133 49.5,42C 48.2041,38.0913 47.5374,33.9246 47.5,29.5C 47.6667,25.5 47.8333,21.5 48,17.5C 49.2419,16.1279 50.7419,15.1279 52.5,14.5C 52.8333,18.6667 53.1667,22.8333 53.5,27C 53.4644,31.5894 52.7977,35.9228 51.5,40C 54.7536,40.2503 57.7536,41.2503 60.5,43C 59.0577,43.3768 58.0577,44.2101 57.5,45.5 Z"/></g>
<g><path style="opacity:1" fill="#5a6975" d="M 157.5,36.5 C 158.622,38.2884 158.789,40.2884 158,42.5C 157.329,43.2524 156.496,43.5858 155.5,43.5C 157.168,41.5214 157.834,39.188 157.5,36.5 Z"/></g>
<g><path style="opacity:1" fill="#1a7b8f" d="M 16.5,44.5 C 21.1835,46.8627 25.8501,49.1961 30.5,51.5C 32.6761,53.5152 35.1761,55.1819 38,56.5C 38.8141,58.9018 38.6474,61.2351 37.5,63.5C 34.4234,61.295 31.0901,59.6284 27.5,58.5C 26.5084,58.6716 25.8417,58.3382 25.5,57.5C 22.8211,55.3991 19.9877,53.3991 17,51.5C 16.5034,49.1902 16.3367,46.8568 16.5,44.5 Z"/></g>
<g><path style="opacity:1" fill="#192e3f" d="M 60.5,52.5 C 53.3646,56.2352 46.3646,60.2352 39.5,64.5C 39.2641,61.3915 39.5975,58.3915 40.5,55.5C 46.9655,53.4372 52.6322,50.1039 57.5,45.5C 58.5832,45.4606 59.5832,45.1272 60.5,44.5C 61.7294,47.1987 61.7294,49.8654 60.5,52.5 Z"/></g>
<g><path style="opacity:1" fill="#828e98" d="M 211.5,47.5 C 210.713,49.1042 209.38,49.7709 207.5,49.5C 208.514,48.3263 209.847,47.6596 211.5,47.5 Z"/></g>
<g><path style="opacity:1" fill="#5d6d79" d="M 188.5,50.5 C 194.167,51.8333 199.833,51.8333 205.5,50.5C 202.814,51.9908 199.814,52.6575 196.5,52.5C 193.473,52.7135 190.807,52.0468 188.5,50.5 Z"/></g>
<g><path style="opacity:1" fill="#1b2f41" d="M 13.5,53.5 C 17.6828,54.2567 21.6828,55.59 25.5,57.5C 25.8417,58.3382 26.5084,58.6716 27.5,58.5C 30.3119,61.4015 33.3119,64.0681 36.5,66.5C 34.1043,68.2121 31.4376,68.7121 28.5,68C 21.8063,64.658 15.473,60.8247 9.5,56.5C 10.1667,55.8333 10.8333,55.1667 11.5,54.5C 12.4916,54.6716 13.1583,54.3382 13.5,53.5 Z"/></g>
<g><path style="opacity:1" fill="#79a0ab" d="M 34.5,50.5 C 33.4019,51.397 33.4019,52.2303 34.5,53C 36.4068,54.122 38.4068,54.9553 40.5,55.5C 39.5975,58.3915 39.2641,61.3915 39.5,64.5C 38.2223,64.7822 37.2223,65.4489 36.5,66.5C 33.3119,64.0681 30.3119,61.4015 27.5,58.5C 31.0901,59.6284 34.4234,61.295 37.5,63.5C 38.6474,61.2351 38.8141,58.9018 38,56.5C 35.1761,55.1819 32.6761,53.5152 30.5,51.5C 31.8333,51.1667 33.1667,50.8333 34.5,50.5 Z"/></g>
<g><path style="opacity:1" fill="#76b0bc" d="M 119.5,69.5 C 117.833,69.5 116.167,69.5 114.5,69.5C 114.217,68.7109 113.717,68.0442 113,67.5C 112.148,61.0008 114.481,59.3341 120,62.5C 120.703,64.9291 120.537,67.2625 119.5,69.5 Z"/></g>
<g><path style="opacity:1" fill="#9ec7cf" d="M 149.5,61.5 C 151.455,60.0698 153.121,60.4031 154.5,62.5C 152.067,66.687 150.401,66.3536 149.5,61.5 Z"/></g>
<g><path style="opacity:1" fill="#7bb3be" d="M 217.5,69.5 C 216.167,69.5 214.833,69.5 213.5,69.5C 213.369,68.6236 213.702,67.9569 214.5,67.5C 215.396,68.5063 216.062,68.5063 216.5,67.5C 214.625,66.4597 213.292,64.9597 212.5,63C 212.734,61.2676 213.734,60.4342 215.5,60.5C 217,60.4528 218,61.1195 218.5,62.5C 217.397,62.9976 216.397,63.3309 215.5,63.5C 218.39,64.8373 219.057,66.8373 217.5,69.5 Z"/></g>
<g><path style="opacity:1" fill="#81b7c2" d="M 99.5,69.5 C 98.8333,69.5 98.1667,69.5 97.5,69.5C 98.1667,58.8333 98.8333,58.8333 99.5,69.5 Z"/></g>
<g><path style="opacity:1" fill="#6baab7" d="M 126.5,69.5 C 125.167,69.5 123.833,69.5 122.5,69.5C 122.369,68.7611 122.536,68.0944 123,67.5C 123.893,68.7112 124.726,68.7112 125.5,67.5C 123.625,66.4597 122.292,64.9597 121.5,63C 122.875,59.9309 124.541,59.7642 126.5,62.5C 125.603,62.6691 124.603,63.0024 123.5,63.5C 127.197,64.2853 128.197,66.2853 126.5,69.5 Z"/></g>
<g><path style="opacity:1" fill="#9cc6cf" d="M 161.5,62.5 C 160.735,63.6602 159.735,64.6602 158.5,65.5C 156.568,64.3705 156.234,64.7038 157.5,66.5C 157.5,67.5 157.5,68.5 157.5,69.5C 155.167,69.5 152.833,69.5 150.5,69.5C 150.5,68.5 150.5,67.5 150.5,66.5C 153.5,66.8333 154.833,65.5 154.5,62.5C 156.962,59.9469 159.295,59.9469 161.5,62.5 Z"/></g>
<g><path style="opacity:1" fill="#6baab7" d="M 111.5,69.5 C 110.833,69.5 110.167,69.5 109.5,69.5C 110.167,58.8333 110.833,58.8333 111.5,69.5 Z"/></g>
<g><path style="opacity:1" fill="#eff5f6" d="M 115.5,62.5 C 118.084,63.0483 119.084,64.715 118.5,67.5C 117.167,67.5 115.833,67.5 114.5,67.5C 114.366,65.7085 114.699,64.0418 115.5,62.5 Z"/></g>
<g><path style="opacity:1" fill="#7ab3be" d="M 190.5,69.5 C 189.833,69.5 189.167,69.5 188.5,69.5C 188.896,66.5178 188.229,63.8511 186.5,61.5C 188.167,60.1667 189.833,60.1667 191.5,61.5C 190.607,64.0841 190.274,66.7508 190.5,69.5 Z"/></g>
<g><path style="opacity:1" fill="#7cb4bf" d="M 81.5,69.5 C 78.1667,69.5 74.8333,69.5 71.5,69.5C 71.3893,68.8826 71.056,68.3826 70.5,68C 71.7376,68.0773 72.7376,67.9106 73.5,67.5C 71.2623,65.7415 70.2623,63.4082 70.5,60.5C 72.1439,60.2865 73.6439,60.6198 75,61.5C 75.6877,62.3317 75.521,62.9984 74.5,63.5C 73.6043,62.4937 72.9377,62.4937 72.5,63.5C 75.6919,66.118 77.0252,65.118 76.5,60.5C 78.288,60.2148 79.9547,60.5481 81.5,61.5C 78.8333,62.8333 78.8333,64.1667 81.5,65.5C 78.9292,66.9045 78.9292,68.2379 81.5,69.5 Z"/></g>
<g><path style="opacity:1" fill="#85b8c3" d="M 94.5,69.5 C 93.8333,69.5 93.1667,69.5 92.5,69.5C 91.9536,67.6968 91.1203,66.0302 90,64.5C 89.0754,65.0465 88.2421,65.7132 87.5,66.5C 88.1272,67.4168 88.4606,68.4168 88.5,69.5C 86.8333,69.5 85.1667,69.5 83.5,69.5C 83.5,66.5 83.5,63.5 83.5,60.5C 85.9393,61.0525 88.2727,61.0525 90.5,60.5C 91.316,62.2873 92.316,63.9539 93.5,65.5C 94.2432,64.0921 95.0766,62.7588 96,61.5C 96.0448,64.2196 95.5448,66.8862 94.5,69.5 Z"/></g>
<g><path style="opacity:1" fill="#78b0bc" d="M 137.5,69.5 C 135.833,69.5 134.167,69.5 132.5,69.5C 130.416,67.2435 130.083,64.7435 131.5,62C 134.455,59.7087 136.788,60.2087 138.5,63.5C 137.113,63.8072 135.446,63.8072 133.5,63.5C 133.5,64.8333 133.5,66.1667 133.5,67.5C 135.144,67.7135 136.644,67.3802 138,66.5C 138.47,67.5768 138.303,68.5768 137.5,69.5 Z"/></g>
<g><path style="opacity:1" fill="#79b2bd" d="M 146.5,69.5 C 144.833,69.5 143.167,69.5 141.5,69.5C 138.641,65.9375 139.141,62.9375 143,60.5C 148.149,62.1129 149.316,65.1129 146.5,69.5 Z"/></g>
<g><path style="opacity:1" fill="#eff5f6" d="M 142.5,63.5 C 143.833,63.5 145.167,63.5 146.5,63.5C 146.5,64.8333 146.5,66.1667 146.5,67.5C 145.167,67.5 143.833,67.5 142.5,67.5C 142.5,66.1667 142.5,64.8333 142.5,63.5 Z"/></g>
<g><path style="opacity:1" fill="#529cab" d="M 176.5,61.5 C 177.833,62.8333 177.833,64.1667 176.5,65.5C 176.833,66.8333 177.167,68.1667 177.5,69.5C 177.167,69.5 176.833,69.5 176.5,69.5C 175.383,66.7209 174.217,66.3876 173,68.5C 172.503,66.1902 172.337,63.8568 172.5,61.5C 173.833,61.5 175.167,61.5 176.5,61.5 Z"/></g>
<g><path style="opacity:1" fill="#c1dbe1" d="M 176.5,65.5 C 175.5,65.5 174.5,65.5 173.5,65.5C 174.246,61.69 175.246,61.69 176.5,65.5 Z"/></g>
<g><path style="opacity:1" fill="#b6d5db" d="M 176.5,61.5 C 175.167,61.5 173.833,61.5 172.5,61.5C 172.337,63.8568 172.503,66.1902 173,68.5C 174.217,66.3876 175.383,66.7209 176.5,69.5C 173.833,69.5 171.167,69.5 168.5,69.5C 170.075,67.8863 170.741,65.8863 170.5,63.5C 171.404,62.791 171.737,61.791 171.5,60.5C 173.415,60.2155 175.081,60.5489 176.5,61.5 Z"/></g>
<g><path style="opacity:1" fill="#62a4b2" d="M 209.5,69.5 C 208.167,69.5 206.833,69.5 205.5,69.5C 204.418,68.4062 203.752,67.0729 203.5,65.5C 204.43,60.3145 206.93,59.3145 211,62.5C 211.815,65.1982 211.315,67.5315 209.5,69.5 Z"/></g>
<g><path style="opacity:1" fill="#ecf4f5" d="M 206.5,62.5 C 207.5,62.5 208.5,62.5 209.5,62.5C 209.949,64.9775 209.283,66.9775 207.5,68.5C 205.261,66.8669 204.928,64.8669 206.5,62.5 Z"/></g>
<g><path style="opacity:1" fill="#e9f2f3" d="M 92.5,69.5 C 91.1667,69.5 89.8333,69.5 88.5,69.5C 88.4606,68.4168 88.1272,67.4168 87.5,66.5C 88.2421,65.7132 89.0754,65.0465 90,64.5C 91.1203,66.0302 91.9536,67.6968 92.5,69.5 Z"/></g>
<g><path style="opacity:1" fill="#77b1bc" d="M 106.5,69.5 C 105.167,69.5 103.833,69.5 102.5,69.5C 99.8987,66.6629 99.8987,63.8295 102.5,61C 105.259,60.0226 107.259,60.856 108.5,63.5C 106.674,63.9202 104.674,63.9202 102.5,63.5C 102.5,64.8333 102.5,66.1667 102.5,67.5C 104.262,67.6427 105.929,67.3094 107.5,66.5C 107.833,66.8333 108.167,67.1667 108.5,67.5C 107.757,68.1818 107.091,68.8485 106.5,69.5 Z"/></g>
<g><path style="opacity:1" fill="#33889a" d="M 149.5,61.5 C 150.401,66.3536 152.067,66.687 154.5,62.5C 154.833,65.5 153.5,66.8333 150.5,66.5C 150.5,67.5 150.5,68.5 150.5,69.5C 150.167,69.5 149.833,69.5 149.5,69.5C 149.5,66.8333 149.5,64.1667 149.5,61.5 Z"/></g>
<g><path style="opacity:1" fill="#f2f7f8" d="M 164.5,69.5 C 162.167,69.5 159.833,69.5 157.5,69.5C 157.5,68.5 157.5,67.5 157.5,66.5C 158.93,66.5792 160.264,66.2458 161.5,65.5C 162.524,66.8518 163.524,68.1851 164.5,69.5 Z"/></g>
<g><path style="opacity:1" fill="#7ab1bd" d="M 185.5,69.5 C 183.167,69.5 180.833,69.5 178.5,69.5C 181.105,59.0181 183.439,59.0181 185.5,69.5 Z"/></g>
<g><path style="opacity:1" fill="#72aeba" d="M 200.5,69.5 C 199.833,69.5 199.167,69.5 198.5,69.5C 197.312,67.2779 196.312,64.9446 195.5,62.5C 196.002,61.479 196.668,61.3123 197.5,62C 198.191,63.0674 198.691,64.2341 199,65.5C 199.923,64.2412 200.757,62.9079 201.5,61.5C 201.833,62.1667 202.167,62.8333 202.5,63.5C 201.822,65.516 201.156,67.516 200.5,69.5 Z"/></g>
<g><path style="opacity:1" fill="#66a7b4" d="M 170.5,63.5 C 170.741,65.8863 170.075,67.8863 168.5,69.5C 167.167,69.5 165.833,69.5 164.5,69.5C 163.524,68.1851 162.524,66.8518 161.5,65.5C 160.264,66.2458 158.93,66.5792 157.5,66.5C 156.234,64.7038 156.568,64.3705 158.5,65.5C 159.735,64.6602 160.735,63.6602 161.5,62.5C 162.117,62.6107 162.617,62.944 163,63.5C 165.442,59.5622 167.942,59.5622 170.5,63.5 Z"/></g>
<g><path style="opacity:1" fill="#ebf3f4" d="M 165.5,62.5 C 166.5,62.5 167.5,62.5 168.5,62.5C 168.949,64.9775 168.283,66.9775 166.5,68.5C 164.261,66.8669 163.928,64.8669 165.5,62.5 Z"/></g>
</svg>
