<?xml version="1.0" standalone="no"?>
<!DOCTYPE svg PUBLIC "-//W3C//DTD SVG 20010904//EN"
 "http://www.w3.org/TR/2001/REC-SVG-20010904/DTD/svg10.dtd">
<svg version="1.0" xmlns="http://www.w3.org/2000/svg"
 width="152.000000pt" height="202.000000pt" viewBox="0 0 152.000000 202.000000"
 preserveAspectRatio="xMidYMid meet">

<g transform="translate(0.000000,202.000000) scale(0.100000,-0.100000)"
fill="#000000" stroke="none">
<path d="M402 1757 c31 -28 74 -61 95 -72 21 -10 61 -33 88 -50 28 -17 80 -46
117 -64 80 -40 188 -130 242 -200 21 -28 42 -51 46 -51 21 0 18 37 -6 79 -27
47 -228 251 -248 251 -6 0 -26 13 -45 29 -29 24 -207 93 -331 127 -8 2 11 -20
42 -49z"/>
<path d="M1130 860 c0 -62 -5 -100 -15 -120 -9 -17 -13 -30 -10 -30 19 0 82
55 94 80 12 28 11 36 -5 71 -9 22 -28 51 -41 65 l-23 25 0 -91z"/>
<path d="M866 626 c3 -13 1 -33 -4 -43 -8 -15 -6 -22 9 -31 17 -11 23 -8 52
25 17 20 38 42 45 49 6 7 12 14 12 16 0 2 -27 4 -60 5 -59 2 -60 2 -54 -21z"/>
<path d="M821 517 c-16 -26 -21 -49 -20 -98 l1 -64 17 50 c9 28 23 64 32 81
13 25 14 34 4 48 -12 15 -15 13 -34 -17z"/>
<path d="M554 465 c-12 -8 -24 -12 -26 -9 -13 13 -71 -96 -88 -165 -8 -34 -11
-85 -7 -139 5 -91 17 -112 62 -112 20 0 23 7 28 75 4 54 11 83 27 105 24 34
44 32 30 -4 -9 -26 -14 -82 -12 -140 l2 -39 62 7 c35 4 65 9 66 11 2 2 -3 18
-12 36 -29 57 -17 223 15 204 5 -4 9 -37 9 -75 0 -51 5 -78 22 -109 19 -37 26
-41 59 -41 28 0 38 5 42 19 3 12 -1 22 -9 25 -8 3 -14 15 -14 26 0 11 -4 20
-10 20 -5 0 -10 8 -10 19 0 10 -7 24 -15 31 -8 7 -15 18 -15 25 0 8 -4 15 -8
17 -5 2 -24 26 -43 53 -70 102 -124 174 -129 175 -3 0 -15 -7 -26 -15z"/>
</g>
</svg>
